<?xml version="1.0" encoding="UTF-8" standalone="no"?><!-- Generator: Gravit.io --><svg xmlns="http://www.w3.org/2000/svg" xmlns:xlink="http://www.w3.org/1999/xlink" style="isolation:isolate" viewBox="0 0 120 25.064" width="120pt" height="25.064pt"><defs><clipPath id="_clipPath_Ee6VzCx58zOXzdovzOkRlW1XCQKJvfPT"><rect width="120" height="25.064"/></clipPath></defs><g clip-path="url(#_clipPath_Ee6VzCx58zOXzdovzOkRlW1XCQKJvfPT)"><path d=" M 23.35 19.32 L 23.35 19.32 Q 23.15 19.32 23.04 19.2 L 23.04 19.2 L 23.04 19.2 Q 22.93 19.08 22.93 18.86 L 22.93 18.86 L 22.93 5.56 L 22.93 5.56 Q 22.93 5.38 23.08 5.25 L 23.08 5.25 L 23.08 5.25 Q 23.23 5.12 23.43 5.12 L 23.43 5.12 L 28.01 5.12 L 28.01 5.12 Q 30.19 5.12 31.39 6.16 L 31.39 6.16 L 31.39 6.16 Q 32.59 7.2 32.59 9.12 L 32.59 9.12 L 32.59 9.12 Q 32.59 11.04 31.38 12.1 L 31.38 12.1 L 31.38 12.1 Q 30.17 13.16 28.01 13.16 L 28.01 13.16 L 23.75 13.16 L 23.75 18.86 L 23.75 18.86 Q 23.75 19.08 23.65 19.2 L 23.65 19.2 L 23.65 19.2 Q 23.55 19.32 23.35 19.32 L 23.35 19.32 Z  M 23.75 12.36 L 27.99 12.36 L 27.99 12.36 Q 29.85 12.36 30.78 11.54 L 30.78 11.54 L 30.78 11.54 Q 31.71 10.72 31.71 9.12 L 31.71 9.12 L 31.71 9.12 Q 31.71 7.52 30.78 6.71 L 30.78 6.71 L 30.78 6.71 Q 29.85 5.9 27.99 5.9 L 27.99 5.9 L 23.75 5.9 L 23.75 12.36 Z  M 35.77 19.32 L 35.77 19.32 Q 35.57 19.32 35.46 19.2 L 35.46 19.2 L 35.46 19.2 Q 35.35 19.08 35.35 18.86 L 35.35 18.86 L 35.35 9.78 L 35.35 9.78 Q 35.35 9.58 35.46 9.46 L 35.46 9.46 L 35.46 9.46 Q 35.57 9.34 35.77 9.34 L 35.77 9.34 L 35.77 9.34 Q 35.97 9.34 36.08 9.46 L 36.08 9.46 L 36.08 9.46 Q 36.19 9.58 36.19 9.78 L 36.19 9.78 L 36.19 18.86 L 36.19 18.86 Q 36.19 19.08 36.08 19.2 L 36.08 19.2 L 36.08 19.2 Q 35.97 19.32 35.77 19.32 L 35.77 19.32 Z  M 35.77 6.94 L 35.77 6.94 Q 35.47 6.94 35.25 6.74 L 35.25 6.74 L 35.25 6.74 Q 35.03 6.54 35.03 6.22 L 35.03 6.22 L 35.03 6.22 Q 35.03 5.88 35.24 5.68 L 35.24 5.68 L 35.24 5.68 Q 35.45 5.48 35.77 5.48 L 35.77 5.48 L 35.77 5.48 Q 36.09 5.48 36.3 5.68 L 36.3 5.68 L 36.3 5.68 Q 36.51 5.88 36.51 6.22 L 36.51 6.22 L 36.51 6.22 Q 36.51 6.54 36.29 6.74 L 36.29 6.74 L 36.29 6.74 Q 36.07 6.94 35.77 6.94 L 35.77 6.94 Z  M 40.01 19.32 L 40.01 19.32 Q 39.81 19.32 39.7 19.2 L 39.7 19.2 L 39.7 19.2 Q 39.59 19.08 39.59 18.86 L 39.59 18.86 L 39.59 5.48 L 39.59 5.48 Q 39.59 5.26 39.7 5.14 L 39.7 5.14 L 39.7 5.14 Q 39.81 5.02 40.01 5.02 L 40.01 5.02 L 40.01 5.02 Q 40.19 5.02 40.31 5.15 L 40.31 5.15 L 40.31 5.15 Q 40.43 5.28 40.43 5.48 L 40.43 5.48 L 40.43 18.86 L 40.43 18.86 Q 40.43 19.06 40.31 19.19 L 40.31 19.19 L 40.31 19.19 Q 40.19 19.32 40.01 19.32 L 40.01 19.32 Z  M 47.49 19.36 L 47.49 19.36 Q 46.21 19.36 45.23 18.74 L 45.23 18.74 L 45.23 18.74 Q 44.25 18.12 43.71 16.98 L 43.71 16.98 L 43.71 16.98 Q 43.17 15.84 43.17 14.32 L 43.17 14.32 L 43.17 14.32 Q 43.17 12.82 43.71 11.68 L 43.71 11.68 L 43.71 11.68 Q 44.25 10.54 45.23 9.92 L 45.23 9.92 L 45.23 9.92 Q 46.21 9.3 47.49 9.3 L 47.49 9.3 L 47.49 9.3 Q 48.77 9.3 49.75 9.92 L 49.75 9.92 L 49.75 9.92 Q 50.73 10.54 51.27 11.68 L 51.27 11.68 L 51.27 11.68 Q 51.81 12.82 51.81 14.32 L 51.81 14.32 L 51.81 14.32 Q 51.81 15.84 51.27 16.98 L 51.27 16.98 L 51.27 16.98 Q 50.73 18.12 49.75 18.74 L 49.75 18.74 L 49.75 18.74 Q 48.77 19.36 47.49 19.36 L 47.49 19.36 Z  M 47.47 18.54 L 47.47 18.54 Q 49.13 18.54 50.02 17.45 L 50.02 17.45 L 50.02 17.45 Q 50.91 16.36 50.91 14.32 L 50.91 14.32 L 50.91 14.32 Q 50.91 12.34 50 11.23 L 50 11.23 L 50 11.23 Q 49.09 10.12 47.49 10.12 L 47.49 10.12 L 47.49 10.12 Q 45.89 10.12 44.98 11.23 L 44.98 11.23 L 44.98 11.23 Q 44.07 12.34 44.07 14.32 L 44.07 14.32 L 44.07 14.32 Q 44.07 16.36 44.96 17.45 L 44.96 17.45 L 44.96 17.45 Q 45.85 18.54 47.47 18.54 L 47.47 18.54 Z  M 58.53 18.54 L 58.53 18.54 Q 58.97 18.58 58.97 18.94 L 58.97 18.94 L 58.97 18.94 Q 58.97 19.38 58.39 19.32 L 58.39 19.32 L 57.87 19.28 L 57.87 19.28 Q 56.37 19.18 55.67 18.37 L 55.67 18.37 L 55.67 18.37 Q 54.97 17.56 54.97 15.86 L 54.97 15.86 L 54.97 10.26 L 53.31 10.26 L 53.31 10.26 Q 53.17 10.26 53.07 10.16 L 53.07 10.16 L 53.07 10.16 Q 52.97 10.06 52.97 9.92 L 52.97 9.92 L 52.97 9.92 Q 52.97 9.76 53.07 9.65 L 53.07 9.65 L 53.07 9.65 Q 53.17 9.54 53.31 9.54 L 53.31 9.54 L 54.97 9.54 L 54.97 6.88 L 54.97 6.88 Q 54.97 6.66 55.09 6.54 L 55.09 6.54 L 55.09 6.54 Q 55.21 6.42 55.39 6.42 L 55.39 6.42 L 55.39 6.42 Q 55.57 6.42 55.69 6.54 L 55.69 6.54 L 55.69 6.54 Q 55.81 6.66 55.81 6.88 L 55.81 6.88 L 55.81 9.54 L 58.47 9.54 L 58.47 9.54 Q 58.61 9.54 58.71 9.65 L 58.71 9.65 L 58.71 9.65 Q 58.81 9.76 58.81 9.92 L 58.81 9.92 L 58.81 9.92 Q 58.81 10.06 58.72 10.16 L 58.72 10.16 L 58.72 10.16 Q 58.63 10.26 58.47 10.26 L 58.47 10.26 L 55.81 10.26 L 55.81 15.88 L 55.81 15.88 Q 55.81 17.24 56.34 17.82 L 56.34 17.82 L 56.34 17.82 Q 56.87 18.4 57.99 18.5 L 57.99 18.5 L 58.53 18.54 Z " fill="rgb(255,255,255)"/><path d=" M 69.291 6.4 L 68.491 8.26 L 68.491 8.26 Q 67.531 7.96 66.971 7.83 L 66.971 7.83 L 66.971 7.83 Q 66.411 7.7 65.611 7.7 L 65.611 7.7 L 65.611 7.7 Q 63.991 7.7 63.111 9.02 L 63.111 9.02 L 63.111 9.02 Q 62.231 10.34 62.231 12.64 L 62.231 12.64 L 62.231 12.64 Q 62.231 14.62 62.971 16.06 L 62.971 16.06 L 62.971 16.06 Q 63.711 17.5 65.451 17.5 L 65.451 17.5 L 65.451 17.5 Q 66.311 17.5 67.061 17.32 L 67.061 17.32 L 67.061 17.32 Q 67.811 17.14 68.431 16.88 L 68.431 16.88 L 69.411 18.8 L 69.411 18.8 Q 68.631 19.2 67.531 19.44 L 67.531 19.44 L 67.531 19.44 Q 66.431 19.68 65.591 19.68 L 65.591 19.68 L 65.591 19.68 Q 62.411 19.68 60.971 17.64 L 60.971 17.64 L 60.971 17.64 Q 59.531 15.6 59.531 12.66 L 59.531 12.66 L 59.531 12.66 Q 59.531 9.52 61.121 7.52 L 61.121 7.52 L 61.121 7.52 Q 62.711 5.52 65.691 5.52 L 65.691 5.52 L 65.691 5.52 Q 66.291 5.52 67.351 5.72 L 67.351 5.72 L 67.351 5.72 Q 68.411 5.92 69.291 6.4 L 69.291 6.4 Z  M 75.971 19.64 L 75.971 19.64 L 75.971 19.64 Q 73.671 19.64 72.381 18.25 L 72.381 18.25 L 72.381 18.25 Q 71.091 16.86 71.091 14.52 L 71.091 14.52 L 71.091 14.52 Q 71.091 12.2 72.441 10.82 L 72.441 10.82 L 72.441 10.82 Q 73.791 9.44 76.131 9.44 L 76.131 9.44 L 76.131 9.44 Q 78.551 9.44 79.881 10.87 L 79.881 10.87 L 79.881 10.87 Q 81.211 12.3 81.211 14.62 L 81.211 14.62 L 81.211 14.62 Q 81.211 16.94 79.771 18.29 L 79.771 18.29 L 79.771 18.29 Q 78.331 19.64 75.971 19.64 Z  M 78.531 14.62 L 78.531 14.62 L 78.531 14.62 Q 78.531 13.24 77.921 12.45 L 77.921 12.45 L 77.921 12.45 Q 77.311 11.66 76.191 11.66 L 76.191 11.66 L 76.191 11.66 Q 75.051 11.66 74.411 12.36 L 74.411 12.36 L 74.411 12.36 Q 73.771 13.06 73.771 14.5 L 73.771 14.5 L 73.771 14.5 Q 73.771 15.94 74.321 16.68 L 74.321 16.68 L 74.321 16.68 Q 74.871 17.42 76.011 17.42 L 76.011 17.42 L 76.011 17.42 Q 77.131 17.42 77.831 16.75 L 77.831 16.75 L 77.831 16.75 Q 78.531 16.08 78.531 14.62 Z  M 90.931 19.4 L 90.191 18.44 L 90.191 18.44 Q 89.531 19.06 88.571 19.43 L 88.571 19.43 L 88.571 19.43 Q 87.611 19.8 86.831 19.8 L 86.831 19.8 L 86.831 19.8 Q 84.851 19.8 84.021 18.63 L 84.021 18.63 L 84.021 18.63 Q 83.191 17.46 83.191 15.8 L 83.191 15.8 L 83.191 9.7 L 85.811 9.7 L 85.811 15.68 L 85.811 15.68 Q 85.811 16.6 86.251 17.09 L 86.251 17.09 L 86.251 17.09 Q 86.691 17.58 87.531 17.58 L 87.531 17.58 L 87.531 17.58 Q 88.051 17.58 88.631 17.32 L 88.631 17.32 L 88.631 17.32 Q 89.211 17.06 89.691 16.72 L 89.691 16.72 L 89.691 9.7 L 92.291 9.7 L 92.291 19.4 L 90.931 19.4 Z  M 100.111 9.7 L 100.111 9.7 L 100.631 11.78 L 100.631 11.78 Q 99.971 11.78 99.101 12.16 L 99.101 12.16 L 99.101 12.16 Q 98.231 12.54 97.391 13.28 L 97.391 13.28 L 97.391 19.4 L 94.791 19.4 L 94.791 9.7 L 96.151 9.7 L 97.011 11.12 L 97.011 11.12 Q 97.611 10.6 98.471 10.15 L 98.471 10.15 L 98.471 10.15 Q 99.331 9.7 100.111 9.7 Z  M 108.431 10.46 L 107.651 12.32 L 107.651 12.32 Q 106.951 12 106.351 11.83 L 106.351 11.83 L 106.351 11.83 Q 105.751 11.66 105.071 11.66 L 105.071 11.66 L 105.071 11.66 Q 104.571 11.66 104.301 11.85 L 104.301 11.85 L 104.301 11.85 Q 104.031 12.04 104.031 12.38 L 104.031 12.38 L 104.031 12.38 Q 104.031 12.62 104.361 12.84 L 104.361 12.84 L 104.361 12.84 Q 104.691 13.06 105.431 13.32 L 105.431 13.32 L 105.431 13.32 Q 106.651 13.76 107.691 14.55 L 107.691 14.55 L 107.691 14.55 Q 108.731 15.34 108.731 16.6 L 108.731 16.6 L 108.731 16.6 Q 108.731 18.04 107.701 18.84 L 107.701 18.84 L 107.701 18.84 Q 106.671 19.64 104.691 19.64 L 104.691 19.64 L 104.691 19.64 Q 104.071 19.64 103.041 19.4 L 103.041 19.4 L 103.041 19.4 Q 102.011 19.16 101.331 18.64 L 101.331 18.64 L 102.111 16.76 L 102.111 16.76 Q 102.811 17.08 103.461 17.25 L 103.461 17.25 L 103.461 17.25 Q 104.111 17.42 104.651 17.42 L 104.651 17.42 L 104.651 17.42 Q 105.371 17.42 105.751 17.22 L 105.751 17.22 L 105.751 17.22 Q 106.131 17.02 106.131 16.7 L 106.131 16.7 L 106.131 16.7 Q 106.131 16.3 105.751 15.98 L 105.751 15.98 L 105.751 15.98 Q 105.371 15.66 104.551 15.4 L 104.551 15.4 L 104.551 15.4 Q 103.391 15.02 102.361 14.31 L 102.361 14.31 L 102.361 14.31 Q 101.331 13.6 101.331 12.4 L 101.331 12.4 L 101.331 12.4 Q 101.331 11.02 102.351 10.23 L 102.351 10.23 L 102.351 10.23 Q 103.371 9.44 105.111 9.44 L 105.111 9.44 L 105.111 9.44 Q 105.731 9.44 106.711 9.7 L 106.711 9.7 L 106.711 9.7 Q 107.691 9.96 108.431 10.46 L 108.431 10.46 Z  M 115.611 19.64 L 115.611 19.64 L 115.611 19.64 Q 113.091 19.64 111.641 18.26 L 111.641 18.26 L 111.641 18.26 Q 110.191 16.88 110.191 14.56 L 110.191 14.56 L 110.191 14.56 Q 110.191 12.24 111.501 10.84 L 111.501 10.84 L 111.501 10.84 Q 112.811 9.44 115.071 9.44 L 115.071 9.44 L 115.071 9.44 Q 117.351 9.44 118.421 10.95 L 118.421 10.95 L 118.421 10.95 Q 119.491 12.46 119.491 14.52 L 119.491 14.52 L 119.491 15.32 L 112.951 15.32 L 112.951 15.32 Q 113.131 16.28 113.831 16.85 L 113.831 16.85 L 113.831 16.85 Q 114.531 17.42 115.671 17.42 L 115.671 17.42 L 115.671 17.42 Q 116.331 17.42 116.861 17.25 L 116.861 17.25 L 116.861 17.25 Q 117.391 17.08 118.091 16.76 L 118.091 16.76 L 118.851 18.64 L 118.851 18.64 Q 118.171 19.16 117.201 19.4 L 117.201 19.4 L 117.201 19.4 Q 116.231 19.64 115.611 19.64 Z  M 112.971 13.58 L 117.031 13.58 L 117.031 13.58 Q 116.831 12.6 116.311 12.13 L 116.311 12.13 L 116.311 12.13 Q 115.791 11.66 115.011 11.66 L 115.011 11.66 L 115.011 11.66 Q 114.211 11.66 113.671 12.15 L 113.671 12.15 L 113.671 12.15 Q 113.131 12.64 112.971 13.58 L 112.971 13.58 Z " fill="rgb(255,255,255)"/><path d=" M 14.826 21.915 L 4.511 21.915 C 2.002 21.915 -0.039 19.874 -0.039 17.364 L -0.039 7.05 C -0.039 4.541 2.002 2.499 4.511 2.499 L 14.826 2.499 C 17.335 2.499 19.377 4.541 19.377 7.05 L 19.377 17.364 C 19.377 19.874 17.335 21.915 14.826 21.915 Z  M 4.511 4.016 C 2.839 4.016 1.478 5.377 1.478 7.05 L 1.478 17.364 C 1.478 19.037 2.839 20.398 4.511 20.398 L 14.826 20.398 C 16.499 20.398 17.86 19.037 17.86 17.364 L 17.86 7.05 C 17.86 5.377 16.499 4.016 14.826 4.016 L 4.511 4.016 Z  M 7.962 6.329 C 7.962 5.911 7.623 5.571 7.204 5.571 L 4.019 5.571 C 3.6 5.571 3.26 5.911 3.26 6.329 C 3.26 6.748 3.6 7.088 4.019 7.088 L 7.204 7.088 C 7.623 7.088 7.962 6.748 7.962 6.329 Z  M 14.902 15.165 C 14.902 14.746 14.562 14.407 14.143 14.407 L 7.811 14.407 C 7.392 14.407 7.052 14.746 7.052 15.165 C 7.052 15.584 7.392 15.923 7.811 15.923 L 14.143 15.923 C 14.562 15.923 14.902 15.584 14.902 15.165 Z  M 15.926 18.123 C 15.926 17.704 15.586 17.364 15.167 17.364 L 13.499 17.364 C 13.08 17.364 12.74 17.704 12.74 18.123 C 12.74 18.542 13.08 18.881 13.499 18.881 L 15.167 18.881 C 15.586 18.881 15.926 18.542 15.926 18.123 Z " fill="rgb(255,255,255)"/><path d=" M 15.281 12.966 L 9.934 12.966 C 9.515 12.966 9.176 12.626 9.176 12.207 C 9.176 11.788 9.515 11.449 9.934 11.449 L 15.281 11.449 C 15.7 11.449 16.039 11.788 16.039 12.207 C 16.039 12.626 15.7 12.966 15.281 12.966 Z  M 13.385 9.287 C 13.385 8.868 13.045 8.529 12.627 8.529 L 5.535 8.529 C 5.116 8.529 4.777 8.868 4.777 9.287 C 4.777 9.706 5.116 10.046 5.535 10.046 L 12.627 10.046 C 13.045 10.046 13.385 9.706 13.385 9.287 Z " fill="rgb(255,255,255)"/></g></svg>